<svg id="SvgjsSvg1000" xmlns="http://www.w3.org/2000/svg" version="1.1" xmlns:xlink="http://www.w3.org/1999/xlink" xmlns:svgjs="http://svgjs.com/svgjs" width="260" height="90"><defs id="SvgjsDefs1001"></defs><path id="SvgjsPath1007" d="M798.8844 3942.66841C832.40716 3941.16946 878.87361 3950.18847 900.74541 3979.17558C893.37955 3960.47928 886.17318 3939.90117 885.47739 3920.39208C885.3309800000001 3916.17306 891.4414 3914.5435700000003 892.9035 3918.79354C900.55249 3941.01496 904.26762 3963.96441 913.11348 3985.99478C914.6115599999999 3989.75567 910.42327 3992.9447 907.0101599999999 3991.5746C906.2793599999999 3991.2806 905.5387499999999 3991.0423 904.80549 3990.76223C904.3221599999999 3990.8565099999996 903.7871799999999 3990.7549999999997 903.24479 3990.32907C903.1178 3990.23488 903.00473 3990.1431399999997 902.89166 3990.0514C901.61605 3989.5895299999997 900.34618 3989.1358499999997 899.07713 3988.7182199999997C882.87282 3989.44386 865.78305 3985.1739399999997 849.77085 3982.89625C844.96432 3982.2210499999997 845.49501 3975.09858 850.15801 3974.59246C861.922 3973.31364 873.53387 3973.8748299999997 884.9141099999999 3975.9532799999997C875.3797099999999 3968.82237 865.4874299999999 3962.54024 853.31963 3958.4130099999998C833.4293799999999 3951.6603899999996 811.94723 3949.90449 791.13577 3952.1225999999997C748.46916 3956.6548 709.95088 3976.8747099999996 673.00968 3997.6383699999997C672.64195 3998.4207899999997 672.03992 3999.1475299999997 671.07165 3999.63019C667.5098899999999 4001.46495 663.90387 4003.1841999999997 660.23966 4004.7854899999998C655.6792899999999 4006.86779 651.76068 3999.4059599999996 656.1555099999999 3996.87801C699.87195 3971.65105 747.25343 3944.9809099999998 798.88438 3942.6684 " fill="#3c3c3b" fill-opacity="1" transform="matrix(1,0,0,1,-654,-3916)"></path></svg>