<svg id="SvgjsSvg1026" xmlns="http://www.w3.org/2000/svg" version="1.1" xmlns:xlink="http://www.w3.org/1999/xlink" xmlns:svgjs="http://svgjs.com/svgjs" width="36" height="41"><defs id="SvgjsDefs1027"></defs><path id="SvgjsPath1028" d="M1580.86 6436.59C1581.4699999999998 6436.31 1581.84 6435.66 1581.8 6434.93L1581.35 6431.21L1583.9099999999999 6428.53C1584.4799999999998 6427.969999999999 1584.5199999999998 6427 1583.9499999999998 6426.3099999999995L1581.3899999999999 6423.549999999999L1581.9199999999998 6419.789999999999C1581.9999999999998 6418.979999999999 1581.4299999999998 6418.169999999999 1580.62 6418.009999999999L1576.9199999999998 6417.28L1575.1299999999999 6414C1574.76 6413.23 1573.87 6412.91 1573.05 6413.23L1573.01 6413.23L1569.6 6414.8099999999995L1566.26 6413.19C1565.9 6412.99 1565.45 6412.95 1565.04 6413.07C1564.6299999999999 6413.19 1564.31 6413.469999999999 1564.11 6413.84L1562.28 6417.12L1558.57 6417.76C1557.72 6417.93 1557.1499999999999 6418.7 1557.23 6419.59L1557.68 6423.31L1555.1200000000001 6425.9800000000005C1554.5500000000002 6426.55 1554.5100000000002 6427.52 1555.0800000000002 6428.21L1557.64 6430.96L1557.1100000000001 6434.7300000000005C1557.0300000000002 6435.46 1557.48 6436.150000000001 1558.17 6436.43L1552.1100000000001 6447.12C1551.94 6447.36 1551.9900000000002 6447.68 1552.1100000000001 6447.93C1552.2700000000002 6448.17 1552.5100000000002 6448.33 1552.8000000000002 6448.33L1559.3100000000002 6448.33L1562.2800000000002 6453.47C1562.4400000000003 6453.72 1562.6800000000003 6453.88 1562.9700000000003 6453.88C1563.2500000000002 6453.88 1563.5400000000002 6453.72 1563.6600000000003 6453.47L1569.4700000000003 6443.6L1575.2900000000002 6453.6C1575.4500000000003 6453.84 1575.7000000000003 6454 1575.9800000000002 6454C1576.2700000000002 6454 1576.5500000000002 6453.84 1576.6700000000003 6453.6L1579.6400000000003 6448.33L1586.1500000000003 6448.33C1586.4400000000003 6448.33 1586.7200000000003 6448.17 1586.8400000000004 6447.93C1587.0500000000004 6447.68 1587.0500000000004 6447.360000000001 1586.8800000000003 6447.12ZM1565.33 6439.83L1563.54 6436.47C1563.29 6436.06 1562.8899999999999 6435.740000000001 1562.3999999999999 6435.7L1558.6599999999999 6435.01L1559.1799999999998 6431.29C1559.2699999999998 6430.8 1559.1 6430.28 1558.7799999999997 6429.95L1556.2599999999998 6427.2L1558.8199999999997 6424.53C1559.1799999999996 6424.16 1559.3499999999997 6423.679999999999 1559.2699999999998 6423.19L1558.8199999999997 6419.509999999999C1558.8199999999997 6419.509999999999 1558.8199999999997 6419.469999999999 1558.8599999999997 6419.419999999999L1562.5599999999997 6418.779999999999C1563.0099999999998 6418.699999999999 1563.4599999999998 6418.409999999999 1563.6999999999998 6417.969999999998L1565.5299999999997 6414.689999999999L1568.8599999999997 6416.309999999999C1569.3099999999997 6416.549999999998 1569.8799999999997 6416.549999999998 1570.3299999999997 6416.309999999999L1573.6999999999996 6414.769999999999C1573.7499999999995 6414.769999999999 1573.7499999999995 6414.769999999999 1573.7499999999995 6414.769999999999L1575.5299999999995 6418.129999999998C1575.7799999999995 6418.529999999998 1576.1899999999996 6418.859999999998 1576.6299999999994 6418.899999999999L1580.3299999999995 6419.629999999998L1579.8099999999995 6423.3499999999985C1579.7199999999996 6423.839999999998 1579.8899999999994 6424.359999999999 1580.2099999999996 6424.689999999999L1582.7699999999995 6427.439999999999L1580.1699999999996 6430.109999999999C1579.8099999999997 6430.479999999999 1579.6399999999996 6430.959999999999 1579.7199999999996 6431.449999999999L1580.1699999999996 6435.169999999999L1576.5099999999995 6435.779999999999C1576.0599999999995 6435.859999999999 1575.6199999999994 6436.149999999999 1575.3699999999994 6436.589999999999L1573.5399999999995 6439.869999999999L1570.2099999999996 6438.249999999999C1569.7599999999995 6438.009999999999 1569.1899999999996 6438.009999999999 1568.7399999999996 6438.249999999999L1565.3699999999997 6439.829999999999C1565.3299999999997 6439.829999999999 1565.3299999999997 6439.829999999999 1565.3299999999997 6439.829999999999ZM1560.49 6447.12C1560.32 6446.87 1560.08 6446.71 1559.79 6446.71L1554.18 6446.71L1559.79 6436.83L1562.11 6437.24L1563.8999999999999 6440.5199999999995C1564.2699999999998 6441.29 1565.1599999999999 6441.61 1565.9799999999998 6441.29L1566.0199999999998 6441.29L1567.6899999999998 6440.5199999999995L1568.4999999999998 6441.94L1563.0099999999998 6451.45ZM1578.5 6447.12L1575.98 6451.57L1570.25 6441.69C1570.21 6441.57 1570.17 6441.49 1570.08 6441.41L1569.1899999999998 6439.83L1569.4699999999998 6439.71L1572.8099999999997 6441.33C1573.0499999999997 6441.45 1573.2999999999997 6441.49 1573.5399999999997 6441.49C1574.1099999999997 6441.49 1574.6799999999998 6441.21 1574.9699999999998 6440.679999999999L1576.7999999999997 6437.4L1579.2399999999998 6436.96L1584.8099999999997 6446.71L1579.1999999999998 6446.71C1578.9099999999999 6446.71 1578.6299999999999 6446.87 1578.4999999999998 6447.12Z " fill="#000000" fill-opacity="1" transform="matrix(1,0,0,1,-1552,-6413)"></path><path id="SvgjsPath1029" d="M1569 6419C1564.6 6419 1561 6422.6 1561 6427C1561 6431.4 1564.6 6435 1569 6435C1573.4 6435 1577 6431.4 1577 6427C1577 6422.6 1573.4 6419 1569 6419ZM1562.6 6427C1562.6 6423.48 1565.48 6420.6 1569 6420.6C1572.52 6420.6 1575.4 6423.4800000000005 1575.4 6427C1575.4 6430.52 1572.52 6433.4 1569 6433.4C1565.48 6433.4 1562.6 6430.5199999999995 1562.6 6427Z " fill="#000000" fill-opacity="1" transform="matrix(1,0,0,1,-1552,-6413)"></path></svg>