<svg id="SvgjsSvg1011" xmlns="http://www.w3.org/2000/svg" version="1.1" xmlns:xlink="http://www.w3.org/1999/xlink" xmlns:svgjs="http://svgjs.com/svgjs" width="30" height="37"><defs id="SvgjsDefs1012"></defs><path id="SvgjsPath1013" d="M767.6 6413.2C767.48 6413.07 767.3000000000001 6413 767.13 6413L745.67 6413C745.3 6413 745 6413.3 745 6413.67L745 6449.33C745 6449.7 745.3 6450 745.67 6450L774.28 6450C774.65 6450 774.9499999999999 6449.7 774.9499999999999 6449.33L774.9499999999999 6420.8C774.9499999999999 6420.62 774.8799999999999 6420.45 774.7499999999999 6420.33ZM772.66 6420.13L767.8 6420.13L767.8 6415.28ZM746.34 6448.66L746.34 6414.34L766.46 6414.34L766.46 6420.8C766.46 6421.17 766.76 6421.47 767.13 6421.47L773.61 6421.47L773.61 6448.66Z " fill="#000000" fill-opacity="1" transform="matrix(1,0,0,1,-745,-6413)"></path><path id="SvgjsPath1014" d="M756.89 6421.9L756.89 6424.799999999999C756.89 6425.169999999999 757.1899999999999 6425.469999999999 757.56 6425.469999999999L762.93 6425.469999999999C763.3 6425.469999999999 763.5999999999999 6425.169999999999 763.5999999999999 6424.799999999999L763.5999999999999 6421.9L763.8199999999999 6421.9C764.0899999999999 6421.9 764.3399999999999 6421.74 764.4399999999999 6421.49C764.55 6421.24 764.4899999999999 6420.95 764.3 6420.76L760.7199999999999 6417.2C760.4599999999999 6416.929999999999 760.0299999999999 6416.929999999999 759.7699999999999 6417.2L758.2399999999999 6418.73L758.2399999999999 6418.5599999999995C758.2399999999999 6418.19 757.93 6417.889999999999 757.56 6417.889999999999C757.1899999999999 6417.889999999999 756.89 6418.19 756.89 6418.5599999999995L756.89 6420.07L756.1999999999999 6420.759999999999C755.9999999999999 6420.949999999999 755.9499999999999 6421.239999999999 756.05 6421.489999999999C756.15 6421.739999999999 756.4 6421.899999999999 756.67 6421.899999999999ZM762.43 6420.79C762.3199999999999 6420.91 762.26 6421.06 762.26 6421.23L762.26 6424.129999999999L758.24 6424.129999999999L758.24 6421.23C758.24 6421.0599999999995 758.17 6420.91 758.0600000000001 6420.79L760.2500000000001 6418.61Z " fill="#000000" fill-opacity="1" transform="matrix(1,0,0,1,-745,-6413)"></path><path id="SvgjsPath1015" d="M750 6429.67C750 6430.04 750.3 6430.34 750.67 6430.34L767.66 6430.34C768.03 6430.34 768.3299999999999 6430.04 768.3299999999999 6429.67C768.3299999999999 6429.3 768.03 6429 767.66 6429L750.67 6429C750.3 6429 750 6429.3 750 6429.67Z " fill="#000000" fill-opacity="1" transform="matrix(1,0,0,1,-745,-6413)"></path><path id="SvgjsPath1016" d="M750 6432.67C750 6433.04 750.3 6433.34 750.67 6433.34L768.55 6433.34C768.92 6433.34 769.2199999999999 6433.04 769.2199999999999 6432.67C769.2199999999999 6432.3 768.92 6432 768.55 6432L750.67 6432C750.3 6432 750 6432.3 750 6432.67Z " fill="#000000" fill-opacity="1" transform="matrix(1,0,0,1,-745,-6413)"></path><path id="SvgjsPath1017" d="M750.67 6435.34L759.61 6435.34C759.98 6435.34 760.28 6435.04 760.28 6434.67C760.28 6434.3 759.98 6434 759.61 6434L750.67 6434C750.3 6434 750 6434.3 750 6434.67C750 6435.04 750.3 6435.34 750.67 6435.34Z " fill="#000000" fill-opacity="1" transform="matrix(1,0,0,1,-745,-6413)"></path><path id="SvgjsPath1018" d="M750.67 6439.34L767.66 6439.34C768.03 6439.34 768.3299999999999 6439.04 768.3299999999999 6438.67C768.3299999999999 6438.3 768.03 6438 767.66 6438L750.67 6438C750.3 6438 750 6438.3 750 6438.67C750 6439.04 750.3 6439.34 750.67 6439.34Z " fill="#000000" fill-opacity="1" transform="matrix(1,0,0,1,-745,-6413)"></path><path id="SvgjsPath1019" d="M768.55 6441L750.67 6441C750.3 6441 750 6441.3 750 6441.67C750 6442.04 750.3 6442.34 750.67 6442.34L768.55 6442.34C768.92 6442.34 769.2199999999999 6442.04 769.2199999999999 6441.67C769.2199999999999 6441.3 768.92 6441 768.55 6441Z " fill="#000000" fill-opacity="1" transform="matrix(1,0,0,1,-745,-6413)"></path><path id="SvgjsPath1020" d="M759.61 6443L750.67 6443C750.3 6443 750 6443.3 750 6443.67C750 6444.04 750.3 6444.34 750.67 6444.34L759.61 6444.34C759.98 6444.34 760.28 6444.04 760.28 6443.67C760.28 6443.3 759.98 6443 759.61 6443Z " fill="#000000" fill-opacity="1" transform="matrix(1,0,0,1,-745,-6413)"></path></svg>