<svg id="SvgjsSvg1021" xmlns="http://www.w3.org/2000/svg" version="1.1" xmlns:xlink="http://www.w3.org/1999/xlink" xmlns:svgjs="http://svgjs.com/svgjs" width="33.25999999999999" height="33.26000000000022"><defs id="SvgjsDefs1022"><clipPath id="SvgjsClipPath1025"><path id="SvgjsPath1024" d="M348.37 6448.63L348.37 6415.37L381.63 6415.37L381.63 6448.63ZM378.75 6417L351.25 6417C350.91 6417 350.62 6417.12 350.37 6417.37C350.12 6417.62 350 6417.91 350 6418.25L350 6445.75C350 6446.09 350.12 6446.38 350.37 6446.63C350.62 6446.88 350.91 6447 351.25 6447L378.75 6447C379.09 6447 379.38 6446.88 379.63 6446.63C379.88 6446.38 380 6446.09 380 6445.75L380 6418.25C380 6417.91 379.88 6417.62 379.63 6417.37C379.38 6417.12 379.09 6417 378.75 6417ZM363.57 6441.2C363.46 6441.32 363.31 6441.37 363.13 6441.37L353.75 6441.37C353.57 6441.37 353.42 6441.32 353.3 6441.2C353.18 6441.08 353.13 6440.929999999999 353.13 6440.75L353.13 6420.75C353.13 6420.57 353.18 6420.42 353.3 6420.3C353.42 6420.18 353.57 6420.12 353.75 6420.12L363.13 6420.12C363.31 6420.12 363.46 6420.18 363.57 6420.3C363.69 6420.42 363.75 6420.570000000001 363.75 6420.75L363.75 6440.75C363.75 6440.93 363.69 6441.08 363.57 6441.2ZM376.7 6433.7C376.58 6433.82 376.43 6433.87 376.25 6433.87L366.88 6433.87C366.69 6433.87 366.54 6433.82 366.43 6433.7C366.31 6433.58 366.25 6433.429999999999 366.25 6433.25L366.25 6420.75C366.25 6420.57 366.31 6420.42 366.43 6420.3C366.54 6420.18 366.69 6420.12 366.88 6420.12L376.25 6420.12C376.43 6420.12 376.58 6420.18 376.7 6420.3C376.82 6420.42 376.88 6420.570000000001 376.88 6420.75L376.88 6433.25C376.88 6433.43 376.82 6433.58 376.7 6433.7Z " fill="#ffffff"></path></clipPath></defs><path id="SvgjsPath1023" d="M378.75 6417L351.25 6417C350.91 6417 350.62 6417.12 350.37 6417.37C350.12 6417.62 350 6417.91 350 6418.25L350 6445.75C350 6446.09 350.12 6446.38 350.37 6446.63C350.62 6446.88 350.91 6447 351.25 6447L378.75 6447C379.09 6447 379.38 6446.88 379.63 6446.63C379.88 6446.38 380 6446.09 380 6445.75L380 6418.25C380 6417.91 379.88 6417.62 379.63 6417.37C379.38 6417.12 379.09 6417 378.75 6417ZM363.57 6441.2C363.46 6441.32 363.31 6441.37 363.13 6441.37L353.75 6441.37C353.57 6441.37 353.42 6441.32 353.3 6441.2C353.18 6441.08 353.13 6440.929999999999 353.13 6440.75L353.13 6420.75C353.13 6420.57 353.18 6420.42 353.3 6420.3C353.42 6420.18 353.57 6420.12 353.75 6420.12L363.13 6420.12C363.31 6420.12 363.46 6420.18 363.57 6420.3C363.69 6420.42 363.75 6420.570000000001 363.75 6420.75L363.75 6440.75C363.75 6440.93 363.69 6441.08 363.57 6441.2ZM376.7 6433.7C376.58 6433.82 376.43 6433.87 376.25 6433.87L366.88 6433.87C366.69 6433.87 366.54 6433.82 366.43 6433.7C366.31 6433.58 366.25 6433.429999999999 366.25 6433.25L366.25 6420.75C366.25 6420.57 366.31 6420.42 366.43 6420.3C366.54 6420.18 366.69 6420.12 366.88 6420.12L376.25 6420.12C376.43 6420.12 376.58 6420.18 376.7 6420.3C376.82 6420.42 376.88 6420.570000000001 376.88 6420.75L376.88 6433.25C376.88 6433.43 376.82 6433.58 376.7 6433.7Z " fill-opacity="0" fill="#ffffff" stroke-dasharray="0" stroke-linejoin="miter" stroke-linecap="butt" stroke-opacity="1" stroke="#6f450c" stroke-miterlimit="50" stroke-width="4" clip-path="url(&quot;#SvgjsClipPath1025&quot;)" transform="matrix(1,0,0,1,-348.37,-6415.37)"></path></svg>