<svg id="SvgjsSvg1000" xmlns="http://www.w3.org/2000/svg" version="1.1" xmlns:xlink="http://www.w3.org/1999/xlink" xmlns:svgjs="http://svgjs.com/svgjs" width="45" height="35"><defs id="SvgjsDefs1001"></defs><path id="SvgjsPath1007" d="M1178.91 6428.17C1178.48 6428.7 1178.0900000000001 6429.21 1177.68 6429.75C1176.6100000000001 6431.15 1175.39 6432.75 1173.16 6435.33C1172.66 6435.91 1172.01 6436.39 1171.26 6436.79C1171.28 6436.67 1171.3 6436.56 1171.31 6436.44C1171.3899999999999 6435.5 1170.96 6434.589999999999 1170.2 6434.0599999999995C1169.31 6433.44 1168.1000000000001 6433.429999999999 1166.89 6434.0199999999995C1165.3400000000001 6434.79 1163.6100000000001 6434.78 1161.94 6434.7699999999995C1161.74 6434.7699999999995 1161.54 6434.759999999999 1161.3400000000001 6434.759999999999C1160.63 6434.759999999999 1159.9 6434.449999999999 1159.0500000000002 6434.089999999999C1157.9 6433.599999999999 1156.5900000000001 6433.039999999999 1154.89 6433.039999999999C1152.96 6433.039999999999 1151.0900000000001 6434.179999999999 1149.92 6435.079999999999L1149.92 6434.719999999999C1149.92 6434.32 1149.6100000000001 6433.999999999999 1149.22 6433.999999999999L1140.71 6433.999999999999C1140.32 6433.999999999999 1140 6434.319999999999 1140 6434.719999999999L1140 6449.07C1140 6449.469999999999 1140.32 6449.79 1140.71 6449.79L1149.22 6449.79C1149.6100000000001 6449.79 1149.92 6449.47 1149.92 6449.07L1149.92 6447.7C1153 6448.13 1155.76 6448.3099999999995 1158.24 6448.3099999999995C1163.23 6448.3099999999995 1167.1 6447.61 1170.17 6446.9C1173.1200000000001 6446.219999999999 1178.6100000000001 6440.379999999999 1181.69 6434.639999999999C1182.27 6433.57 1182.88 6432.539999999999 1183.42 6431.639999999999C1184.17 6430.389999999999 1184.71 6429.48 1184.8700000000001 6428.94C1184.93 6428.719999999999 1185.0700000000002 6427.95 1184.0900000000001 6427.44C1182.8100000000002 6426.759999999999 1180.0100000000002 6426.7699999999995 1178.91 6428.169999999999ZM1141.42 6448.36L1141.42 6435.429999999999L1148.51 6435.429999999999L1148.51 6448.36ZM1180.45 6433.96C1177.3600000000001 6439.71 1172.1200000000001 6444.9800000000005 1169.8500000000001 6445.5C1165.3500000000001 6446.54 1159.0300000000002 6447.55 1149.92 6446.25L1149.92 6436.94C1150.6000000000001 6436.33 1152.79 6434.48 1154.89 6434.48C1156.3000000000002 6434.48 1157.42 6434.95 1158.5 6435.41C1159.45 6435.82 1160.34 6436.2 1161.34 6436.2C1161.53 6436.2 1161.73 6436.2 1161.9299999999998 6436.2C1163.6799999999998 6436.21 1165.6599999999999 6436.23 1167.5099999999998 6435.3099999999995C1168.2499999999998 6434.95 1168.9399999999998 6434.919999999999 1169.3999999999999 6435.249999999999C1169.7499999999998 6435.489999999999 1169.9299999999998 6435.889999999999 1169.8999999999999 6436.319999999999C1169.85 6436.899999999999 1169.4099999999999 6437.419999999999 1168.6899999999998 6437.769999999999C1165.0199999999998 6438.779999999999 1160.4099999999999 6438.779999999999 1157.7199999999998 6438.779999999999C1157.3299999999997 6438.779999999999 1157.0099999999998 6439.109999999999 1157.0099999999998 6439.499999999999C1157.0099999999998 6439.899999999999 1157.3299999999997 6440.219999999999 1157.7199999999998 6440.219999999999C1160.37 6440.219999999999 1163.4499999999998 6440.179999999999 1166.4199999999998 6439.709999999999C1170.1899999999998 6439.119999999999 1172.7399999999998 6437.989999999999 1174.2299999999998 6436.2699999999995C1176.4899999999998 6433.66 1177.7199999999998 6432.049999999999 1178.7999999999997 6430.629999999999C1179.2099999999998 6430.099999999999 1179.5999999999997 6429.589999999999 1180.0199999999998 6429.0599999999995C1180.2899999999997 6428.709999999999 1180.9799999999998 6428.469999999999 1181.8099999999997 6428.44C1182.5799999999997 6428.41 1183.1899999999998 6428.57 1183.4399999999998 6428.71C1183.2399999999998 6429.16 1182.7399999999998 6430.01 1182.2099999999998 6430.89C1181.6599999999999 6431.81 1181.0399999999997 6432.85 1180.4499999999998 6433.96Z " fill="#000000" fill-opacity="1" transform="matrix(1,0,0,1,-1140,-6415)"></path><path id="SvgjsPath1008" d="M1169.18 6421.39C1169.8300000000002 6421.39 1170.3600000000001 6420.860000000001 1170.3600000000001 6420.200000000001C1170.3600000000001 6419.540000000001 1169.8300000000002 6419.000000000001 1169.18 6419.000000000001C1168.53 6419.000000000001 1168 6419.540000000001 1168 6420.200000000001C1168 6420.860000000001 1168.53 6421.39 1169.18 6421.39Z " fill="#000000" fill-opacity="1" transform="matrix(1,0,0,1,-1140,-6415)"></path><path id="SvgjsPath1009" d="M1162.38 6430.9C1162.7700000000002 6430.9 1163.0900000000001 6430.57 1163.0900000000001 6430.179999999999L1163.0900000000001 6429.539999999999L1163.7200000000003 6429.539999999999C1163.9100000000003 6429.539999999999 1164.4300000000003 6429.279999999999 1164.4300000000003 6428.819999999999L1164.4300000000003 6428.189999999999L1165.0600000000004 6428.189999999999C1165.4500000000005 6428.189999999999 1165.7600000000004 6427.869999999999 1165.7600000000004 6427.469999999998L1165.7600000000004 6426.829999999998L1166.3900000000006 6426.829999999998C1166.5800000000006 6426.829999999998 1166.7600000000004 6426.759999999998 1166.8900000000006 6426.619999999998L1168.4800000000005 6425.019999999998C1168.6800000000005 6425.039999999998 1168.8700000000006 6425.049999999997 1169.0700000000004 6425.049999999997C1170.3900000000003 6425.049999999997 1171.6400000000003 6424.529999999997 1172.5700000000004 6423.579999999997C1174.5100000000004 6421.619999999997 1174.5100000000004 6418.429999999998 1172.5700000000004 6416.4699999999975C1171.6400000000003 6415.519999999998 1170.3900000000003 6414.999999999997 1169.0700000000004 6414.999999999997C1167.7400000000005 6414.999999999997 1166.4900000000005 6415.519999999998 1165.5600000000004 6416.4699999999975C1164.1900000000005 6417.849999999998 1163.7500000000005 6419.899999999998 1164.3900000000003 6421.709999999997L1159.2100000000003 6426.959999999997C1159.0700000000002 6427.099999999998 1159.0000000000002 6427.279999999997 1159.0000000000002 6427.4699999999975L1159.0000000000002 6430.179999999998C1159.0000000000002 6430.569999999998 1159.3200000000002 6430.899999999998 1159.7100000000003 6430.899999999998ZM1165.73 6422.39C1165.94 6422.17 1166 6421.85 1165.8700000000001 6421.570000000001C1165.22 6420.200000000001 1165.5000000000002 6418.56 1166.5600000000002 6417.490000000001C1167.2300000000002 6416.81 1168.1200000000001 6416.4400000000005 1169.0700000000002 6416.4400000000005C1170.0100000000002 6416.4400000000005 1170.9 6416.81 1171.5700000000002 6417.490000000001C1172.9500000000003 6418.89 1172.9500000000003 6421.160000000001 1171.5700000000002 6422.56C1170.9 6423.240000000001 1170.0100000000002 6423.610000000001 1169.0700000000002 6423.610000000001C1168.8300000000002 6423.610000000001 1168.6000000000001 6423.59 1168.3700000000001 6423.55C1168.14 6423.5 1167.9 6423.570000000001 1167.73 6423.74L1166.1 6425.4L1165.06 6425.4C1164.6599999999999 6425.4 1164.35 6425.719999999999 1164.35 6426.12L1164.35 6426.75L1163.7199999999998 6426.75C1163.3299999999997 6426.75 1163.0099999999998 6427.07 1163.0099999999998 6427.47L1163.0099999999998 6428.110000000001L1162.3799999999997 6428.110000000001C1162.0099999999998 6428.110000000001 1161.6699999999996 6428.420000000001 1161.6699999999996 6428.820000000001L1161.6699999999996 6429.460000000001L1160.4199999999996 6429.460000000001L1160.4199999999996 6427.770000000001Z " fill="#000000" fill-opacity="1" transform="matrix(1,0,0,1,-1140,-6415)"></path><path id="SvgjsPath1010" d="M1145.18 6443.39C1145.8300000000002 6443.39 1146.3600000000001 6442.860000000001 1146.3600000000001 6442.200000000001C1146.3600000000001 6441.540000000001 1145.8300000000002 6441.000000000001 1145.18 6441.000000000001C1144.53 6441.000000000001 1144 6441.540000000001 1144 6442.200000000001C1144 6442.860000000001 1144.53 6443.39 1145.18 6443.39Z " fill="#000000" fill-opacity="1" transform="matrix(1,0,0,1,-1140,-6415)"></path></svg>