<svg id="SvgjsSvg1015" xmlns="http://www.w3.org/2000/svg" version="1.1" xmlns:xlink="http://www.w3.org/1999/xlink" xmlns:svgjs="http://svgjs.com/svgjs" width="19" height="18"><defs id="SvgjsDefs1016"></defs><path id="SvgjsPath1017" d="M1020.2 1436.21C1020.1 1436.08 1019.95 1436 1019.7900000000001 1436C1019.7800000000001 1436 1011.2 1436 1011.19 1436C1011.1800000000001 1436 1011.1800000000001 1436 1011.1700000000001 1436C1011.1600000000001 1436.01 1011.1400000000001 1436.01 1011.1200000000001 1436.01C1011.1000000000001 1436.02 1011.0800000000002 1436.02 1011.0600000000002 1436.03C1011.0500000000002 1436.04 1011.0300000000002 1436.04 1011.0100000000002 1436.05C1011.0100000000002 1436.06 1011.0000000000002 1436.06 1011.0000000000002 1436.06C1010.9900000000002 1436.07 1010.9800000000002 1436.07 1010.9700000000003 1436.08C1010.9600000000003 1436.08 1010.9500000000003 1436.09 1010.9500000000003 1436.09C1010.9400000000003 1436.1 1010.9400000000003 1436.1 1010.9300000000003 1436.1C1010.9300000000003 1436.11 1010.9300000000003 1436.11 1010.9200000000003 1436.11C1010.9200000000003 1436.12 1010.9100000000003 1436.12 1010.9000000000003 1436.1299999999999C1010.9000000000003 1436.1299999999999 1010.8900000000003 1436.1399999999999 1010.8800000000003 1436.1499999999999C1010.8700000000003 1436.1599999999999 1010.8700000000003 1436.1599999999999 1010.8600000000004 1436.1699999999998C1010.8500000000004 1436.1799999999998 1010.8500000000004 1436.1899999999998 1010.8400000000004 1436.1999999999998C1010.8300000000004 1436.1999999999998 1010.8300000000004 1436.1999999999998 1010.8300000000004 1436.2099999999998C1010.8300000000004 1436.2099999999998 1010.8300000000004 1436.2099999999998 1010.8200000000004 1436.2099999999998L1006.1000000000004 1442.5799999999997C1005.9900000000004 1442.7399999999998 1005.9700000000004 1442.9399999999996 1006.0500000000004 1443.1199999999997C1006.1400000000004 1443.2899999999997 1006.3200000000004 1443.3999999999996 1006.5100000000004 1443.3999999999996L1007.0400000000004 1443.3999999999996L1007.0400000000004 1450.4199999999996C1007.0400000000004 1450.7099999999996 1007.2900000000004 1450.9399999999996 1007.5700000000004 1450.9399999999996L1023.4400000000004 1450.9399999999996C1023.7200000000004 1450.9399999999996 1023.9300000000004 1450.7099999999996 1023.9300000000004 1450.4199999999996L1023.9300000000004 1443.3999999999996L1024.4400000000005 1443.3999999999996C1024.7200000000005 1443.3999999999996 1024.9500000000005 1443.1699999999996 1024.9500000000005 1442.8899999999996C1024.9500000000005 1442.7599999999995 1024.9000000000005 1442.6499999999996 1024.8300000000006 1442.5599999999997ZM1015.39 1449.91L1015.39 1443.4L1022.91 1443.4L1022.91 1449.91ZM1013.28 1449.91L1013.28 1446.0400000000002C1013.28 1445.7600000000002 1013.0799999999999 1445.5300000000002 1012.8 1445.5300000000002L1009.67 1445.5300000000002C1009.39 1445.5300000000002 1009.14 1445.7600000000002 1009.14 1446.0400000000002L1009.14 1449.91L1008.06 1449.91L1008.06 1443.4L1014.3699999999999 1443.4L1014.3699999999999 1449.91ZM1007.53 1442.37L1011.24 1437.37L1014.95 1442.37ZM1010.16 1449.91L1010.16 1446.5600000000002L1012.26 1446.5600000000002L1012.26 1449.91ZM1012.26 1437.03L1019.53 1437.03L1023.43 1442.37L1016.2199999999999 1442.37Z " fill="#ffffff" fill-opacity="1" transform="matrix(1,0,0,1,-1006,-1435.5)"></path><path id="SvgjsPath1018" d="M1020.63 1445L1017.51 1445C1017.23 1445 1017 1445.23 1017 1445.52L1017 1447.6399999999999C1017 1447.9199999999998 1017.23 1448.1499999999999 1017.51 1448.1499999999999L1020.63 1448.1499999999999C1020.92 1448.1499999999999 1021.14 1447.9199999999998 1021.14 1447.6399999999999L1021.14 1445.52C1021.14 1445.23 1020.92 1445 1020.63 1445ZM1020.12 1446.03L1020.12 1447.12L1018.02 1447.12L1018.02 1446.03Z " fill="#ffffff" fill-opacity="1" transform="matrix(1,0,0,1,-1006,-1435.5)"></path><path id="SvgjsPath1019" d="M1014.33 1436L1014.33 1452.5 " fill-opacity="0" fill="#ffffff" stroke-dasharray="0" stroke-linejoin="miter" stroke-linecap="square" stroke-opacity="1" stroke="#ffffff" stroke-miterlimit="50" stroke-width="1" transform="matrix(1,0,0,1,-1006,-1435.5)"></path></svg>