<svg id="SvgjsSvg1012" xmlns="http://www.w3.org/2000/svg" version="1.1" xmlns:xlink="http://www.w3.org/1999/xlink" xmlns:svgjs="http://svgjs.com/svgjs" width="17" height="11"><defs id="SvgjsDefs1013"></defs><path id="SvgjsPath1014" d="M1022.46 1399L1008.21 1399L1008.21 1402.37L1007 1402.37L1007 1408.6799999999998L1008.21 1408.6799999999998L1008.21 1409.6699999999998L1009.3000000000001 1409.6699999999998L1009.3000000000001 1408.6799999999998L1021.3700000000001 1408.6799999999998L1021.3700000000001 1409.6699999999998L1022.4600000000002 1409.6699999999998L1022.4600000000002 1408.6799999999998L1023.6700000000002 1408.6799999999998L1023.6700000000002 1402.37L1022.4600000000002 1402.37ZM1021.37 1400.08L1021.37 1402.37L1019.49 1402.37L1019.49 1404.79L1015.88 1404.79L1015.88 1400.08ZM1014.79 1400.08L1014.79 1404.79L1011.17 1404.79L1011.17 1402.37L1009.3 1402.37L1009.3 1400.08ZM1008.09 1407.6L1008.09 1403.4499999999998L1010.09 1403.4499999999998L1010.09 1405.87L1020.58 1405.87L1020.58 1403.4499999999998L1022.58 1403.4499999999998L1022.58 1407.6Z " fill="#ffffff" fill-opacity="1" transform="matrix(1,0,0,1,-1007,-1399)"></path></svg>