<svg id="SvgjsSvg1020" xmlns="http://www.w3.org/2000/svg" version="1.1" xmlns:xlink="http://www.w3.org/1999/xlink" xmlns:svgjs="http://svgjs.com/svgjs" width="19" height="15"><defs id="SvgjsDefs1021"></defs><path id="SvgjsPath1022" d="M1020.2 1475.21C1020.1 1475.08 1019.95 1475 1019.7900000000001 1475C1019.7800000000001 1475 1011.2 1475 1011.19 1475C1011.1800000000001 1475 1011.1800000000001 1475 1011.1700000000001 1475C1011.1600000000001 1475.01 1011.1400000000001 1475.01 1011.1200000000001 1475.01C1011.1000000000001 1475.02 1011.0800000000002 1475.02 1011.0600000000002 1475.03C1011.0500000000002 1475.04 1011.0300000000002 1475.04 1011.0100000000002 1475.05C1011.0100000000002 1475.06 1011.0000000000002 1475.06 1011.0000000000002 1475.06C1010.9900000000002 1475.07 1010.9800000000002 1475.07 1010.9700000000003 1475.08C1010.9600000000003 1475.08 1010.9500000000003 1475.09 1010.9500000000003 1475.09C1010.9400000000003 1475.1 1010.9400000000003 1475.1 1010.9300000000003 1475.1C1010.9300000000003 1475.11 1010.9300000000003 1475.11 1010.9200000000003 1475.11C1010.9200000000003 1475.12 1010.9100000000003 1475.12 1010.9000000000003 1475.1299999999999C1010.9000000000003 1475.1299999999999 1010.8900000000003 1475.1399999999999 1010.8800000000003 1475.1499999999999C1010.8700000000003 1475.1599999999999 1010.8700000000003 1475.1599999999999 1010.8600000000004 1475.1699999999998C1010.8500000000004 1475.1799999999998 1010.8500000000004 1475.1899999999998 1010.8400000000004 1475.1999999999998C1010.8300000000004 1475.1999999999998 1010.8300000000004 1475.1999999999998 1010.8300000000004 1475.2099999999998C1010.8300000000004 1475.2099999999998 1010.8300000000004 1475.2099999999998 1010.8200000000004 1475.2099999999998L1006.1000000000004 1481.5799999999997C1005.9900000000004 1481.7399999999998 1005.9700000000004 1481.9399999999996 1006.0500000000004 1482.1199999999997C1006.1400000000004 1482.2899999999997 1006.3200000000004 1482.3999999999996 1006.5100000000004 1482.3999999999996L1007.0400000000004 1482.3999999999996L1007.0400000000004 1489.4199999999996C1007.0400000000004 1489.7099999999996 1007.2900000000004 1489.9399999999996 1007.5700000000004 1489.9399999999996L1023.4400000000004 1489.9399999999996C1023.7200000000004 1489.9399999999996 1023.9300000000004 1489.7099999999996 1023.9300000000004 1489.4199999999996L1023.9300000000004 1482.3999999999996L1024.4400000000005 1482.3999999999996C1024.7200000000005 1482.3999999999996 1024.9500000000005 1482.1699999999996 1024.9500000000005 1481.8899999999996C1024.9500000000005 1481.7599999999995 1024.9000000000005 1481.6499999999996 1024.8300000000006 1481.5599999999997ZM1015.39 1488.91L1015.39 1482.4L1022.91 1482.4L1022.91 1488.91ZM1013.28 1488.91L1013.28 1485.0400000000002C1013.28 1484.7600000000002 1013.0799999999999 1484.5300000000002 1012.8 1484.5300000000002L1009.67 1484.5300000000002C1009.39 1484.5300000000002 1009.14 1484.7600000000002 1009.14 1485.0400000000002L1009.14 1488.91L1008.06 1488.91L1008.06 1482.4L1014.3699999999999 1482.4L1014.3699999999999 1488.91ZM1007.53 1481.37L1011.24 1476.37L1014.95 1481.37ZM1010.16 1488.91L1010.16 1485.5600000000002L1012.26 1485.5600000000002L1012.26 1488.91ZM1012.26 1476.03L1019.53 1476.03L1023.43 1481.37L1016.2199999999999 1481.37Z " fill="#ffffff" fill-opacity="1" transform="matrix(1,0,0,1,-1006,-1475)"></path><path id="SvgjsPath1023" d="M1020.63 1484L1017.51 1484C1017.23 1484 1017 1484.23 1017 1484.52L1017 1486.6399999999999C1017 1486.9199999999998 1017.23 1487.1499999999999 1017.51 1487.1499999999999L1020.63 1487.1499999999999C1020.92 1487.1499999999999 1021.14 1486.9199999999998 1021.14 1486.6399999999999L1021.14 1484.52C1021.14 1484.23 1020.92 1484 1020.63 1484ZM1020.12 1485.03L1020.12 1486.12L1018.02 1486.12L1018.02 1485.03Z " fill="#ffffff" fill-opacity="1" transform="matrix(1,0,0,1,-1006,-1475)"></path></svg>