<svg id="SvgjsSvg1008" xmlns="http://www.w3.org/2000/svg" version="1.1" xmlns:xlink="http://www.w3.org/1999/xlink" xmlns:svgjs="http://svgjs.com/svgjs" width="13" height="15"><defs id="SvgjsDefs1009"></defs><path id="SvgjsPath1010" d="M1017.38 1360L1017.38 1360.92L1017.76 1360.92L1017.76 1362.5500000000002L1014.92 1362.5500000000002L1014.92 1363.4700000000003L1015.3 1363.4700000000003L1015.3 1365.1000000000004L1012.4599999999999 1365.1000000000004L1012.4599999999999 1366.0200000000004L1012.8399999999999 1366.0200000000004L1012.8399999999999 1367.6600000000005L1009.9999999999999 1367.6600000000005L1009.9999999999999 1368.5700000000006L1010.3799999999999 1368.5700000000006L1010.3799999999999 1370.6700000000005L1011.2699999999999 1370.6700000000005L1011.2699999999999 1368.5700000000006L1013.7299999999999 1368.5700000000006L1013.7299999999999 1366.0200000000007L1016.1899999999999 1366.0200000000007L1016.1899999999999 1363.4700000000007L1018.65 1363.4700000000007L1018.65 1360.9200000000008L1020.67 1360.9200000000008L1020.67 1360.0000000000007Z " fill="#ffffff" fill-opacity="1" transform="matrix(1,0,0,1,-1008,-1356)"></path><path id="SvgjsPath1011" d="M1009.11091 1366.09619L1008.4038 1365.38908L1016.88908 1356.9037999999998L1017.59619 1357.6109099999999Z " fill="#ffffff" fill-opacity="1" transform="matrix(1,0,0,1,-1008,-1356)"></path></svg>